<?xml version="1.0" encoding="utf-8"?>
<!-- Generator: Adobe Illustrator 26.4.1, SVG Export Plug-In . SVG Version: 6.00 Build 0)  -->
<svg version="1.1" id="Layer_1" xmlns="http://www.w3.org/2000/svg" xmlns:xlink="http://www.w3.org/1999/xlink" x="0px" y="0px"
	 viewBox="0 0 24 24" style="enable-background:new 0 0 24 24;" xml:space="preserve">
<style type="text/css">
	.st0{fill:#FFFFFF;}
</style>
<path class="st0" d="M11,14H9c0-5,4-9,9-9v2C14.1,7,11,10.1,11,14 M18,11V9c-2.8,0-5,2.2-5,5h2C15,12.3,16.3,11,18,11 M7,4
	c0-1.1-0.9-2-2-2S3,2.9,3,4s0.9,2,2,2S7,5.1,7,4 M11.4,4.5h-2C9.2,5.9,8,7,6.5,7h-3C2.7,7,2,7.7,2,8.5V11h6V8.7
	C9.9,8.1,11.2,6.5,11.4,4.5 M19,17c1.1,0,2-0.9,2-2s-0.9-2-2-2s-2,0.9-2,2S17.9,17,19,17 M20.5,18h-3c-1.5,0-2.7-1.1-2.9-2.5h-2
	c0.2,2,1.6,3.6,3.4,4.2V22h6v-2.5C22,18.7,21.3,18,20.5,18z"/>
</svg>
