<?xml version="1.0" encoding="utf-8"?>
<!-- Generator: Adobe Illustrator 26.4.1, SVG Export Plug-In . SVG Version: 6.00 Build 0)  -->
<svg version="1.1" id="Layer_1" xmlns="http://www.w3.org/2000/svg" xmlns:xlink="http://www.w3.org/1999/xlink" x="0px" y="0px"
	 viewBox="0 0 367.5 383.1" style="enable-background:new 0 0 367.5 383.1;" xml:space="preserve">
<style type="text/css">
	.st0{fill:#FFFFFF;}
	.st1{fill:#00AEEF;}
	.st2{fill:#6D6E71;}
</style>
<rect class="st0" width="367.5" height="383.1"/>
<g>
	<polygon class="st1" points="160.4,121.1 147.9,135.5 120,103.3 101.3,103.3 101.3,190 122.9,190 122.9,135.9 146.3,163.1 
		149.5,163.1 160.4,150.5 	"/>
	<polygon class="st1" points="175.8,103.3 172.9,106.6 172.9,135.9 172.9,170.2 172.9,190 194.5,190 194.5,103.3 	"/>
	<polygon class="st1" points="172.9,96.1 176.2,99 194.5,99 194.5,77.4 172.9,77.4 	"/>
	<polygon class="st2" points="207.1,121.1 219.6,135.5 247.4,103.3 266.2,103.3 266.2,190 244.6,190 244.6,135.9 221.2,163.1 
		217.9,163.1 207.1,150.5 	"/>
	<polygon class="st2" points="160.4,262 147.9,247.7 120,279.8 101.3,279.8 101.3,193.1 122.9,193.1 122.9,247.2 146.3,220 
		149.5,220 160.4,232.6 	"/>
	<polygon class="st2" points="175.8,279.8 172.9,276.5 172.9,247.2 172.9,212.9 172.9,193.1 194.5,193.1 194.5,279.8 	"/>
	<polygon class="st2" points="172.9,287 176.2,284.1 194.5,284.1 194.5,305.7 172.9,305.7 	"/>
	<polygon class="st2" points="207.1,262 219.6,247.7 247.4,279.8 266.2,279.8 266.2,193.1 244.6,193.1 244.6,247.2 221.2,220 
		217.9,220 207.1,232.6 	"/>
</g>
</svg>
